<?xml version="1.0" encoding="UTF-8"?>
<svg width="20px" height="20px" viewBox="0 0 20 20" version="1.1" xmlns="http://www.w3.org/2000/svg" xmlns:xlink="http://www.w3.org/1999/xlink">
    <title>password</title>
    <g id="页面" stroke="none" stroke-width="1" fill="none" fill-rule="evenodd">
        <g id="0-登录（小屏幕" transform="translate(-692.000000, -394.000000)">
            <g id="编组" transform="translate(640.000000, 168.000000)">
                <g id="编组-5备份-2" transform="translate(40.000000, 216.000000)">
                    <g id="password" transform="translate(12.000000, 10.000000)">
                        <rect id="_mockplus_fix_" x="0" y="0" width="20" height="20"></rect>
                        <g id="lock-fill">
                            <rect id="矩形" fill="#000000" fill-rule="nonzero" opacity="0" x="0" y="0" width="20" height="20"></rect>
                            <path d="M16.25,9.0625 L14.921875,9.0625 L14.921875,4.6875 C14.921875,3.30664062 13.8027344,2.1875 12.421875,2.1875 L7.578125,2.1875 C6.19726562,2.1875 5.078125,3.30664062 5.078125,4.6875 L5.078125,9.0625 L3.75,9.0625 C3.40429688,9.0625 3.125,9.34179688 3.125,9.6875 L3.125,17.1875 C3.125,17.5332031 3.40429688,17.8125 3.75,17.8125 L16.25,17.8125 C16.5957031,17.8125 16.875,17.5332031 16.875,17.1875 L16.875,9.6875 C16.875,9.34179688 16.5957031,9.0625 16.25,9.0625 Z M10.546875,13.6914062 L10.546875,14.7265625 C10.546875,14.8125 10.4765625,14.8828125 10.390625,14.8828125 L9.609375,14.8828125 C9.5234375,14.8828125 9.453125,14.8125 9.453125,14.7265625 L9.453125,13.6914062 C9.21679688,13.5214844 9.0625,13.2441406 9.0625,12.9296875 C9.0625,12.4121094 9.48242188,11.9921875 10,11.9921875 C10.5175781,11.9921875 10.9375,12.4121094 10.9375,12.9296875 C10.9375,13.2441406 10.7832031,13.5214844 10.546875,13.6914062 Z M13.515625,9.0625 L6.484375,9.0625 L6.484375,4.6875 C6.484375,4.08398438 6.97460938,3.59375 7.578125,3.59375 L12.421875,3.59375 C13.0253906,3.59375 13.515625,4.08398438 13.515625,4.6875 L13.515625,9.0625 Z" id="形状" fill="#B8C5CC"></path>
                        </g>
                    </g>
                </g>
            </g>
        </g>
    </g>
</svg>