<?xml version="1.0" encoding="UTF-8"?>
<svg width="20px" height="20px" viewBox="0 0 20 20" version="1.1" xmlns="http://www.w3.org/2000/svg" xmlns:xlink="http://www.w3.org/1999/xlink">
    <title>user</title>
    <g id="页面" stroke="none" stroke-width="1" fill="none" fill-rule="evenodd">
        <g id="0-登录（小屏幕" transform="translate(-692.000000, -338.000000)">
            <g id="编组" transform="translate(640.000000, 168.000000)">
                <g id="编组-5备份" transform="translate(40.000000, 160.000000)">
                    <g id="user" transform="translate(12.000000, 10.000000)">
                        <rect id="_mockplus_fix_" x="0" y="0" width="20" height="20"></rect>
                        <path d="M7.71720661,2.26091579 C8.56277552,1.95288473 9.46917532,1.64429605 10.2380699,1.67228552 C11.0069645,1.700275 12.1151234,2.26599576 12.2162474,2.41119061 C12.3173714,2.55638546 13.0215232,2.43446612 13.2723772,2.89406509 C13.5232313,3.35366406 13.5733043,4.64637851 13.39355,6.78273441 C13.39355,7.08356459 13.8663097,7.22303293 13.8581924,7.97533067 C13.8500751,8.72762842 13.6777535,9.310344 13.39355,9.49617863 C13.1093465,9.68201326 12.7711581,9.91523018 12.7711581,10.2857911 C12.7711581,10.656352 12.6625036,11.3495408 12.2162474,11.6327227 C12.2162474,11.6633896 12.2162474,11.8183749 12.2162474,12.0976787 C12.4413152,12.0998954 12.5900672,12.1338235 12.6625036,12.1994629 C12.7711581,12.297922 13.2653357,13.3551105 13.5733043,13.481648 C13.8812729,13.6081855 17.7860878,14.8832551 18.1045209,15.2717379 C18.3168096,15.5307264 18.4219529,16.552541 18.4199508,18.3371815 L1.79128052,18.3371815 C1.71251984,16.7295703 1.75620333,15.7755207 1.92233099,15.4750326 C2.17152247,15.0243005 6.19193565,13.5848141 6.52053981,13.481648 C6.73960924,13.4128705 7.05794452,12.9854755 7.47554564,12.1994629 L7.87896592,12.0976787 C7.67873906,11.7761957 7.54426563,11.5666249 7.47554564,11.4689663 C7.37246564,11.3224784 7.14909305,11.0737444 7.14146474,10.5474593 C7.13809966,10.3152985 7.20298022,9.74186802 6.9742287,9.70492276 C6.74547718,9.66797751 6.18508973,9.60674075 6.18508973,7.8429743 C6.18508973,7.35825256 6.34851162,7.3128099 6.34851162,6.88747765 C6.34851162,6.46214541 6.02166784,5.71732908 6.18508973,4.62107101 C6.34851162,3.52481295 6.8716377,2.56894685 7.71720661,2.26091579 Z" id="Path-27"></path>
                        <g>
                            <rect id="矩形" fill="#000000" fill-rule="nonzero" opacity="0" x="0" y="0" width="20" height="20"></rect>
                            <path d="M13.0951354,11.1106845 C13.87583,11.4741171 14.5806229,11.9673417 15.1933594,12.5800781 C15.8671875,13.2539062 16.3984375,14.0390625 16.7675781,14.9140625 C17.1308594,15.7714844 17.3242187,16.6796875 17.34375,17.6132812 C17.3457031,17.7011719 17.2753906,17.7734375 17.1875,17.7734375 L17.1875,17.7734375 L2.8125,17.7734375 C2.72460937,17.7734375 2.65429687,17.7011719 2.65625,17.6132812 C2.67578125,16.6796875 2.86914062,15.7714844 3.23242187,14.9160156 C3.60351562,14.0410156 4.1328125,13.2558594 4.80664062,12.5820312 C5.48046875,11.90625 6.265625,11.3769531 7.140625,11.0078125 L6.9065646,11.1136997 C7.78359445,11.7249204 8.84994131,12.0833333 10,12.0833333 C11.0944667,12.0833333 12.113119,11.7587331 12.9649377,11.2005519 Z" id="形状结合" fill="#B8C5CC"></path>
                            <circle id="椭圆形" fill="#B8C5CC" cx="10" cy="6.66666667" r="4.16666667"></circle>
                        </g>
                    </g>
                </g>
            </g>
        </g>
    </g>
</svg>