<?xml version="1.0" encoding="UTF-8"?>
<svg width="20px" height="20px" viewBox="0 0 20 20" version="1.1" xmlns="http://www.w3.org/2000/svg" xmlns:xlink="http://www.w3.org/1999/xlink">
    <title>company</title>
    <g id="页面" stroke="none" stroke-width="1" fill="none" fill-rule="evenodd">
        <g id="0-登录（小屏幕" transform="translate(-692.000000, -282.000000)">
            <g id="编组" transform="translate(640.000000, 168.000000)">
                <g id="编组-5" transform="translate(40.000000, 104.000000)">
                    <g id="company" transform="translate(12.000000, 10.000000)">
                        <rect id="_mockplus_fix_" x="0" y="0" width="20" height="20"></rect>
                        <path d="M11.7751858,5.99811567 L14.1955819,14.0542604 C14.3001407,14.402393 14.2075568,14.7798463 13.9537738,15.0400827 L10.0286264,19.0650432 C9.64303552,19.4604394 9.00992043,19.4683881 8.61452429,19.0827972 C8.61137109,19.0797222 8.60823824,19.0766264 8.60512595,19.07351 L4.5783021,15.0413775 C4.31815014,14.7808825 4.22216907,14.3985124 4.32845521,14.0460356 L6.75518578,5.99811567 L11.7751858,5.99811567 Z M13.0892557,7.25592232 C13.1977346,7.14744335 14.4699675,7.45812289 15.4462783,8.43443362 C16.422589,9.41074435 16.7332685,10.6829773 16.6247896,10.7914562 C16.5163106,10.8999352 15.2440777,10.5892557 14.267767,9.61294492 C13.2914562,8.63663419 12.9807767,7.36440129 13.0892557,7.25592232 Z M11.3560385,1.25710912 L12.1123661,1.41376664 C12.6531717,1.52578328 13.0007739,2.05500029 12.8887572,2.59580591 C12.8686013,2.69311685 12.8340527,2.78687982 12.7862505,2.874004 L11.5441858,5.13611567 L6.98718578,5.13611567 L5.74026015,2.87721159 C5.4733902,2.39368406 5.64902586,1.78536671 6.13255339,1.51849676 C6.2207008,1.46984617 6.31568989,1.4347864 6.41430756,1.41450336 L7.19369876,1.25420327 C8.56687299,0.971777767 9.98325997,0.972766587 11.3560385,1.25710912 Z" id="形状结合" fill="#B8C5CC"></path>
                    </g>
                </g>
            </g>
        </g>
    </g>
</svg>