<?xml version="1.0" encoding="UTF-8"?>
<svg width="20px" height="20px" viewBox="0 0 20 20" version="1.1" xmlns="http://www.w3.org/2000/svg" xmlns:xlink="http://www.w3.org/1999/xlink">
    <title>verificationCode</title>
    <g id="页面" stroke="none" stroke-width="1" fill="none" fill-rule="evenodd">
        <g id="0-登录（小屏幕" transform="translate(-692.000000, -450.000000)">
            <g id="编组" transform="translate(640.000000, 168.000000)">
                <g id="编组-5备份-3" transform="translate(40.000000, 272.000000)">
                    <g id="verificationCode" transform="translate(12.000000, 10.000000)">
                        <rect id="_mockplus_fix_" x="0" y="0" width="20" height="20"></rect>
                        <g id="safety-certificate-f">
                            <rect id="矩形" fill="#000000" fill-rule="nonzero" opacity="0" x="0" y="0" width="20" height="20"></rect>
                            <path d="M16.9316406,3.31835937 L10.2949219,1.05664062 C10.2148438,1.02929687 10.1074219,1.015625 10,1.015625 C9.89257812,1.015625 9.78515625,1.02929687 9.70507812,1.05664062 L3.06835938,3.31835937 C2.90625,3.37304687 2.7734375,3.56054687 2.7734375,3.73242187 L2.7734375,13.1542969 C2.7734375,13.3261719 2.88476562,13.5527344 3.01953125,13.6601562 L9.75195313,18.90625 C9.8203125,18.9589844 9.90820313,18.9863281 9.99804688,18.9863281 C10.0878906,18.9863281 10.1777344,18.9589844 10.2441406,18.90625 L16.9765625,13.6601562 C17.1113281,13.5546875 17.2227403,13.328125 17.2227403,13.1542969 L17.2227403,3.73242187 C17.2265625,3.56054687 17.09375,3.375 16.9316406,3.31835937 Z M13.5644531,6.65429687 L9.41210937,12.3710937 C9.28710938,12.5429687 9.02929687,12.5429687 8.90429687,12.3710937 L6.43554688,8.97265625 C6.36132812,8.86914062 6.43554688,8.72460937 6.5625,8.72460937 L7.640625,8.72460937 C7.74023438,8.72460937 7.8359375,8.7734375 7.89453125,8.85351562 L9.15820312,10.5917969 L12.1054687,6.53320312 C12.1640625,6.453125 12.2578125,6.40429687 12.359375,6.40429687 L13.4375,6.40429687 C13.5644531,6.40625 13.6386719,6.55078125 13.5644531,6.65429687 Z" id="形状" fill="#B8C5CC"></path>
                        </g>
                    </g>
                </g>
            </g>
        </g>
    </g>
</svg>